# xmcd
#
# Track frame offsets:
#	150
#	18541
#	33489
#	48257
#	63928
#	83062
#	102933
#	126212
#	144102
#	164798
#	177137
#	191750
#	203389
#	216993
#	230969
#	247602
#	262232
#	282072
#	298556
#	319504
#
# Disc length: 4428 seconds
#
# Revision: 1
# Processed by: cddbd v1.5.2PL0 Copyright (c) Steve Scherf et al.
# Submitted via: audiograbber 1.83.01
#
DISCID=20114a14
DTITLE=Texas Twister Radio - Texas Twister vol 02
DYEAR=1999
DGENRE=
TTITLE0=Wrong Side Of The River -Those Magnificent Men
TTITLE1=Night Flyer -Larry Dickinson
TTITLE2=I Miss Hearing You Call Me Sweethart -Call Of The West
TTITLE3=Love Me Tender -Bente Boe´
TTITLE4=Come On -Stan
TTITLE5=Thonder Rolls -Poker Alice
TTITLE6=Polanski´s Barbara Ann -Freddy Krueger´s Hat
TTITLE7=Fairytales -Daniela Mühleis Band
TTITLE8=Great KansasnHymn -Thornbirds
TTITLE9=So Long, Adios -David Thomason with Paul Mateki 
TTITLE10=Can´t Hold Back My Heart -Pamela Sue Wright
TTITLE11=Dancing The Cowboy Way -Billy McCoy
TTITLE12=Poison Of Your Kiss -Erin Hay
TTITLE13=Friday Night At The Book Club -Magic Music
TTITLE14=In Texas On Saturday Night -Joe B Vaughan JR
TTITLE15=Until The End Of Time -Shane Blume
TTITLE16=Ephemeral Fire -The Rabbit´s Hat
TTITLE17=Coconut Milk -The Stinking Badger Of Jawa
TTITLE18=Waiting On Debbie -Bowman Arrow
TTITLE19=Where The Eagles Fly -Eltan Houck
EXTD=
EXTT0=
EXTT1=
EXTT2=
EXTT3=
EXTT4=
EXTT5=
EXTT6=
EXTT7=
EXTT8=
EXTT9=
EXTT10=
EXTT11=
EXTT12=
EXTT13=
EXTT14=
EXTT15=
EXTT16=
EXTT17=
EXTT18=
EXTT19=
PLAYORDER=
